<svg height="512pt" viewBox="0 0 512 512" width="512pt" xmlns="http://www.w3.org/2000/svg"><path d="m94.269531 238.867188h34.265625v34.265624h-34.265625zm0 0"/><path d="m0 456.832031c0 30.417969 24.746094 55.164063 55.164062 55.164063h401.667969c30.421875 0 55.167969-24.746094 55.167969-55.164063v-298.296875h-512zm207.800781-247.964843h224.933594c8.28125 0 15 6.714843 15 15 0 8.28125-6.71875 15-15 15h-224.933594c-8.285156 0-15-6.71875-15-15 0-8.285157 6.714844-15 15-15zm0 64.265624h224.933594c8.28125 0 15 6.714844 15 15 0 8.285157-6.71875 15-15 15h-224.933594c-8.285156 0-15-6.714843-15-15 0-8.285156 6.714844-15 15-15zm-143.53125-49.265624c0-8.285157 6.714844-15 15-15h64.265625c8.285156 0 15 6.714843 15 15v64.265624c0 8.285157-6.714844 15-15 15h-64.265625c-8.285156 0-15-6.714843-15-15zm15 113.53125h353.464844c8.28125 0 15 6.714843 15 15 0 8.285156-6.71875 15-15 15h-353.464844c-8.285156 0-15-6.714844-15-15 0-8.285157 6.710938-15 15-15zm0 64.269531h353.464844c8.28125 0 15 6.714843 15 15 0 8.28125-6.71875 15-15 15h-353.464844c-8.285156 0-15-6.71875-15-15 0-8.285157 6.710938-15 15-15zm0 0"/><path d="m456.832031 0h-401.667969c-30.417968 0-55.164062 24.746094-55.164062 55.164062v73.367188h512v-73.367188c0-30.417968-24.746094-55.164062-55.167969-55.164062zm-88.367187 94.265625h-224.933594c-8.28125 0-15-6.714844-15-15s6.71875-15 15-15h224.933594c8.285156 0 15 6.714844 15 15s-6.714844 15-15 15zm0 0"/></svg>